<svg width="110" height="111" viewBox="0 0 110 111" fill="none" xmlns="http://www.w3.org/2000/svg">
<path d="M55.031 110.062C80.99 110.062 81.313 99.791 81.313 97.906C81.313 94.758 81.313 85.312 81.313 85.312H54.531V81.531C54.531 81.531 82.563 81.531 91.906 81.531C99.915 81.531 109.844 76.577 109.844 55.281C109.844 31.959 99.306 28 94.188 28C91.852 28 84.844 28 84.844 28C84.844 28 84.844 38.216 84.844 41.125C84.844 46.616 82.213 56.781 69.438 56.781C53.528 56.781 49.962 56.781 42.906 56.781C39.014 56.781 28 58.677 28 71.187C28 85.662 28 89.452 28 95.406C28 100.636 31.196 110.062 55.031 110.062ZM69.782 101.593C67.12 101.593 64.969 99.442 64.969 96.78C64.969 94.118 67.119 91.967 69.782 91.967C72.443 91.967 74.595 94.118 74.595 96.78C74.595 99.442 72.443 101.593 69.782 101.593Z" fill="#252A34"/>
<path d="M54.813 0C28.842 0 28.563 10.081 28.563 12.156C28.563 15.304 28.563 24.75 28.563 24.75H55.313V28.531C55.313 28.531 27.461 28.531 17.938 28.531C9.989 28.531 0 33.364 0 54.781C0 74.454 7.792 82.062 15.656 82.062C17.991 82.062 25 82.062 25 82.062C25 82.062 25 72.297 25 68.937C25 63.446 27.721 53.281 40.406 53.281C56.316 53.281 60.377 53.281 66.937 53.281C70.839 53.281 81.843 51.585 81.843 38.875C81.843 25.423 81.843 20.985 81.843 14.656C81.844 11.503 81.305 0 54.813 0ZM40.063 8.469C42.725 8.469 44.876 10.619 44.876 13.282C44.876 15.943 42.725 18.095 40.063 18.095C37.401 18.095 35.25 15.944 35.25 13.282C35.25 10.619 37.401 8.469 40.063 8.469Z" fill="#252A34"/>
</svg>
