<svg width="42" height="45" viewBox="0 0 42 45" fill="none" xmlns="http://www.w3.org/2000/svg">
<path d="M19.2162 9.32131C17.3796 6.56695 16.9826 2.88583 16.896 1.37313C12.2308 2.38197 7.59591 4.1916 7.86359 5.52436C7.89733 5.69194 8.10877 5.89326 8.45968 6.08895L7.91083 7.07081C7.24051 6.69516 6.86374 6.26216 6.76139 5.7448C6.45885 4.23659 8.16726 2.87234 11.9822 1.57332C14.587 0.685939 17.2143 0.15621 17.3256 0.134841L17.9971 -0.00012207V0.687064C17.9971 0.734301 18.0263 5.50974 20.152 8.69824L19.2162 9.32131Z" fill="#FF4949"/>
<path d="M21.091 45H20.8087C11.5953 45 1.34147 42.1061 0.130183 37.2632C-0.608739 34.3053 1.80822 31.0369 7.11901 27.8147L7.70385 28.7752C2.92504 31.6758 0.622797 34.5921 1.22226 36.991C2.27384 41.1951 11.9912 43.8157 20.5141 43.8741C21.5274 42.3592 26.9721 33.4595 23.8645 21.5232L24.9521 21.2397C28.4938 34.8395 21.3329 44.6749 21.2609 44.7728L21.091 45Z" fill="#FF4949"/>
<path d="M4.42314 40.8456C3.81693 40.8456 3.51664 40.7792 3.46715 40.7668C3.26921 40.7185 3.114 40.5666 3.06001 40.3709C3.00491 40.1752 3.06114 39.9649 3.2051 39.8221C3.28608 39.7411 11.2995 31.7153 12.3815 25.2259L13.4904 25.4103C12.5603 30.9933 7.06279 37.3579 4.87976 39.7018C7.06054 39.5769 12.567 38.5557 23.138 32.6387C14.8884 31.7344 13.5837 25.1303 13.5703 25.0594L14.6758 24.8558C14.7287 25.1325 16.0547 31.6164 25.0725 31.6164C25.0758 31.6164 25.0781 31.6164 25.0815 31.6164C25.3368 31.6164 25.5583 31.7873 25.6236 32.0325C25.691 32.2777 25.5831 32.5375 25.3638 32.6657C12.7279 39.9863 6.60054 40.8444 4.42314 40.8456Z" fill="#FF4949"/>
<path d="M9.58876 43.5376C9.35595 43.5376 9.14451 43.3937 9.06241 43.1721C8.97355 42.9348 9.05453 42.666 9.26148 42.5175C9.29972 42.4894 11.3005 41.0127 13.4296 37.7624C12.6108 37.4002 11.7819 36.9773 10.9598 36.4836C9.96103 35.8841 9.20637 35.2408 8.6429 34.5817C5.75244 35.3443 3.08467 35.6457 0.741943 35.4466L0.836418 34.3264C2.94634 34.5053 5.3453 34.2556 7.94559 33.6066C6.17645 30.5835 7.8005 27.5828 7.823 27.5423L8.80598 28.09C8.73062 28.2272 7.38324 30.7555 9.08602 33.3007C11.5615 32.5899 14.2022 31.5383 16.9352 30.1718C17.5639 28.108 18.0554 25.7608 18.313 23.1133C18.331 22.9322 18.4345 22.7714 18.5919 22.6803C18.7494 22.5892 18.9417 22.5813 19.107 22.6566C19.143 22.6735 22.778 24.3336 25.4098 25.4166C25.601 25.4954 25.7337 25.6731 25.7551 25.8789C25.7776 26.0847 25.6842 26.2849 25.5121 26.4019C22.9377 28.1564 20.3802 29.6781 17.889 30.9479C17.0994 33.4503 16.1221 35.5332 15.1234 37.236C19.287 38.7915 22.9006 38.8151 22.9467 38.8151C23.2031 38.8151 23.427 38.9883 23.4911 39.2368C23.5552 39.4854 23.4438 39.7452 23.22 39.87C18.1139 42.7065 9.98578 43.505 9.64275 43.5376C9.62475 43.5365 9.60676 43.5376 9.58876 43.5376ZM14.5205 38.2145C13.3509 40.0297 12.2014 41.3333 11.3422 42.1846C13.5893 41.854 17.5291 41.1297 20.7986 39.7789C19.233 39.5866 16.9667 39.1592 14.5205 38.2145ZM9.86206 34.2376C10.3041 34.6785 10.8552 35.1092 11.5379 35.5197C12.3656 36.0168 13.2058 36.4386 14.0347 36.7963C14.8827 35.3746 15.7228 33.6685 16.4438 31.6587C14.1708 32.7406 11.9641 33.6044 9.86206 34.2376ZM19.3488 24.0006C19.1183 25.9891 18.7629 27.8032 18.322 29.4554C20.189 28.46 22.0942 27.323 24.0152 26.0521C22.273 25.3143 20.3577 24.4561 19.3488 24.0006Z" fill="#FF4949"/>
<path d="M13.4127 8.55974C13.2812 8.55974 13.1507 8.5125 13.0472 8.42478C11.2365 6.87495 9.10518 3.72132 9.0152 3.58748C8.87012 3.37267 8.89261 3.08587 9.06694 2.89467C9.24014 2.70235 9.52581 2.65736 9.75075 2.77996C9.76312 2.78333 10.8057 3.21296 17.8676 4.38939C18.0712 4.42313 18.2388 4.56484 18.3063 4.75829C18.3749 4.95173 18.331 5.16767 18.1938 5.32063C16.2166 7.51715 13.7187 8.48439 13.6129 8.52375C13.5477 8.54737 13.4791 8.55974 13.4127 8.55974ZM10.8518 4.22518C11.5615 5.18005 12.5838 6.47007 13.5196 7.33945C14.0943 7.0774 15.3832 6.41945 16.6057 5.31726C13.7007 4.82127 11.9282 4.46812 10.8518 4.22518Z" fill="#FF4949"/>
<path d="M17.8205 24.081C17.744 24.081 17.6664 24.0653 17.5944 24.0338C17.3706 23.9348 17.2357 23.7031 17.2615 23.4602C17.5899 20.3684 12.846 19.1279 12.7976 19.1166C12.6019 19.0671 12.4467 18.9153 12.3939 18.7207C12.341 18.5262 12.3961 18.317 12.5389 18.1741C12.7718 17.9413 18.3187 12.4405 25.2783 9.41954C25.4729 9.33518 25.6933 9.36668 25.8575 9.49826C26.0206 9.63098 26.096 9.84354 26.0532 10.0482C24.7194 16.5085 18.5066 23.594 18.2434 23.8921C18.132 24.0147 17.9768 24.081 17.8205 24.081ZM14.01 18.3282C15.3417 18.8287 17.6743 19.9871 18.2648 22.1027C19.8944 20.0692 23.3731 15.3849 24.6721 10.93C19.7381 13.3031 15.5835 16.8819 14.01 18.3282Z" fill="#FF4949"/>
<path d="M7.96367 28.5343L7.42944 27.5446C9.54724 26.403 11.9732 24.3021 13.9605 21.8604C12.269 23.0188 11.3006 23.8117 11.2703 23.8376L10.5516 22.9716C10.5954 22.9356 12.5355 21.3442 15.76 19.3501C16.6452 17.9262 17.3256 16.4619 17.6754 15.0583C17.735 14.8198 17.7867 14.5893 17.8283 14.3666C15.6633 13.5939 13.6659 13.1362 12.2937 12.9393C12.0857 12.9101 11.9125 12.7673 11.8427 12.5704C11.773 12.3736 11.8191 12.1532 11.9597 12.0002C12.0553 11.8968 14.3395 9.44943 17.194 8.10542C17.4156 8.00083 17.681 8.05256 17.8475 8.23364C17.9228 8.31574 19.467 10.05 19.0745 13.6378C20.3735 14.1439 21.7119 14.7591 23.0008 15.4913C26.1038 14.0967 29.6275 12.8415 33.3806 12.0835C33.574 12.0452 33.7888 12.1149 33.9215 12.2724C34.0531 12.4299 34.0891 12.6469 34.0149 12.8381C32.5528 16.5856 28.6321 20.5884 28.4657 20.7571C28.3521 20.8718 28.1969 20.9291 28.0349 20.9235C27.8741 20.9145 27.7256 20.838 27.6244 20.7121C26.3647 19.1285 24.7182 17.8171 22.9423 16.7498C20.4961 17.879 18.3299 19.0869 16.5496 20.179C14.2777 23.7251 10.8485 26.9811 7.96367 28.5343ZM24.1738 16.2032C25.6247 17.1389 26.9754 18.2389 28.0923 19.5188C29.0235 18.5088 31.2583 15.9558 32.5258 13.4207C29.5454 14.1068 26.7246 15.0999 24.1738 16.2032ZM18.8957 14.7703C18.8586 14.9537 18.8158 15.1415 18.7686 15.3327C18.5324 16.2763 18.1567 17.2458 17.6754 18.213C18.908 17.509 20.2723 16.7824 21.7445 16.0784C20.802 15.579 19.8404 15.1449 18.8957 14.7703ZM13.5523 12.0148C14.8018 12.26 16.3415 12.6604 17.9847 13.2363C18.1556 11.1635 17.5955 9.89368 17.257 9.33134C15.7094 10.1389 14.3542 11.2748 13.5523 12.0148Z" fill="#FF4949"/>
<path d="M13.5545 17.4448C13.5545 22.371 9.44939 26.2849 6.49145 29.1416C5.99659 29.6252 4.3208 29.7039 4.3208 29.7039C4.73694 29.2766 5.20931 28.8267 5.71542 28.3431C8.52714 25.6213 12.4298 21.8986 12.4298 17.4448C12.4298 12.17 10.3042 10.0893 8.62837 8.42479C7.88607 7.67125 7.25624 6.95145 6.87385 6.07419L7.2225 5.92798C7.6049 6.09668 8.04353 6.28788 8.38093 6.43409C8.65086 6.82773 9.01076 7.21013 9.4269 7.62626C11.1477 9.34704 13.5545 11.7089 13.5545 17.4448Z" fill="#FF4949"/>
<path d="M41.5424 18.9006C41.5424 18.9006 40.8619 18.9973 40.6707 19.0198C30.8184 20.1107 20.6512 22.945 14.8366 25.2731C12.7334 26.1166 10.5515 27.1401 8.56082 28.2872C8.54957 28.2985 8.53832 28.2985 8.51583 28.3097C7.34615 28.9846 4.50068 30.3792 2.19507 31.6051C5.56914 28.0173 11.8899 25.2506 14.4092 24.2384C20.1114 21.9552 29.9074 19.1997 39.546 18.0188C38.4101 16.6917 35.6321 13.88 30.1661 11.788C26.972 10.5509 22.1133 9.85356 17.8283 9.23498C11.0126 8.2565 7.13246 7.60418 6.76131 5.74844C6.68259 5.37729 6.73882 5.00614 6.90752 4.64624C7.27867 5.25357 7.80728 5.68096 8.15593 5.92839C8.32463 6.04086 8.44835 6.10834 8.49334 6.13083L8.50458 6.14208C10.1016 6.9856 14.4092 7.60418 17.997 8.12154C22.3383 8.75136 27.2532 9.45992 30.571 10.7308C38.2976 13.7112 40.9632 17.9738 41.0756 18.1538C41.1768 18.3225 41.5424 18.9006 41.5424 18.9006Z" fill="#FF4949"/>
</svg>
