<svg width="45" height="34" viewBox="0 0 45 34" fill="none" xmlns="http://www.w3.org/2000/svg">
<path d="M0 32.5951V0.529748C0 0.311617 0.0934849 0.186969 0.311616 0.186969C0.841364 0.186969 1.33995 0.18697 2.05667 0.155808C2.80455 0.124647 3.58359 0.124646 4.42495 0.0934847C5.26632 0.062323 6.17 0.0623228 7.13601 0.0311612C8.10203 -4.75953e-07 9.03687 0 9.97172 0C12.527 0 14.646 0.311616 16.391 0.96601C17.9491 1.49576 19.3825 2.36828 20.5667 3.52127C21.5639 4.51844 22.3429 5.73374 22.8415 7.07369C23.3089 8.38248 23.5582 9.72243 23.5582 11.1247C23.5582 13.8046 22.935 16.0171 21.6885 17.7621C20.442 19.5072 18.697 20.816 16.6715 21.5638C14.5525 22.3429 12.2154 22.6233 9.66011 22.6233C8.91223 22.6233 8.41364 22.6233 8.10203 22.5922C7.79041 22.561 7.35414 22.561 6.76207 22.561V32.5639C6.79324 32.782 6.63743 32.969 6.4193 33.0002C6.38813 33.0002 6.35697 33.0002 6.29465 33.0002H0.37394C0.124647 33.0002 0 32.8755 0 32.5951ZM6.79324 6.20117V16.6715C7.2295 16.7026 7.6346 16.7338 8.00854 16.7338H9.66011C10.8754 16.7338 12.0907 16.5468 13.2437 16.1729C14.2409 15.8924 15.1134 15.3004 15.7989 14.5213C16.4533 13.7423 16.765 12.6828 16.765 11.3117C16.7961 10.3457 16.5468 9.37965 16.0482 8.53829C15.5185 7.72809 14.7706 7.10485 13.8669 6.76207C12.7139 6.29465 11.4675 6.10768 10.1899 6.13884C9.37965 6.13884 8.66293 6.13884 8.07086 6.17C7.44763 6.13884 7.01137 6.17 6.79324 6.20117Z" fill="#31A8FF"/>
<path d="M43.0031 14.7707C42.0682 14.2721 41.071 13.9293 40.0115 13.7112C38.8586 13.4619 37.7056 13.3061 36.5214 13.3061C35.8982 13.2749 35.2438 13.3684 34.6517 13.5242C34.2466 13.6177 33.9039 13.8358 33.6857 14.1474C33.5299 14.3967 33.4364 14.7084 33.4364 14.9888C33.4364 15.2693 33.5611 15.5497 33.748 15.799C34.0285 16.1418 34.4024 16.4222 34.8075 16.6404C35.5243 17.0143 36.2721 17.3571 37.02 17.6687C38.7027 18.2296 40.3232 19.0087 41.8189 19.9435C42.8472 20.5979 43.6886 21.4704 44.2807 22.5299C44.7793 23.5271 45.0286 24.6178 44.9974 25.7396C45.0286 27.2042 44.5923 28.6688 43.7821 29.8841C42.9096 31.1305 41.6943 32.0965 40.292 32.6575C38.7651 33.3119 36.8954 33.6546 34.6517 33.6546C33.2183 33.6546 31.816 33.53 30.4138 33.2495C29.3231 33.0626 28.2324 32.7198 27.2353 32.2524C27.0171 32.1277 26.8613 31.9096 26.8925 31.6603V26.2382C26.8925 26.1447 26.9236 26.02 27.0171 25.9577C27.1106 25.8954 27.2041 25.9265 27.2976 25.9889C28.5129 26.7056 29.7905 27.2042 31.1616 27.5158C32.3458 27.8274 33.5922 27.9832 34.8387 27.9832C36.0228 27.9832 36.8642 27.8274 37.4251 27.5469C37.9237 27.3288 38.2665 26.7991 38.2665 26.2382C38.2665 25.8019 38.0172 25.3968 37.5186 24.9917C37.02 24.5866 35.9917 24.1192 34.4648 23.5271C32.8755 22.9662 31.4109 22.2183 30.0398 21.2835C29.0738 20.5979 28.2636 19.6942 27.6715 18.6347C27.1729 17.6375 26.9237 16.5469 26.9548 15.4562C26.9548 14.1163 27.3287 12.8387 28.0143 11.6857C28.7933 10.4392 29.9463 9.44204 31.2863 8.81881C32.7509 8.07093 34.5894 7.72815 36.8019 7.72815C38.0795 7.72815 39.3883 7.82163 40.6659 8.0086C41.6008 8.13325 42.5045 8.38254 43.3458 8.72532C43.4705 8.75648 43.5951 8.88113 43.6574 9.00578C43.6886 9.13042 43.7198 9.25507 43.7198 9.37971V14.4591C43.7198 14.5837 43.6574 14.7084 43.564 14.7707C43.2835 14.833 43.1277 14.833 43.0031 14.7707Z" fill="#31A8FF"/>
</svg>
