<svg width="45" height="34" viewBox="0 0 45 34" fill="none" xmlns="http://www.w3.org/2000/svg">
<path d="M38.7485 19.5411C37.1786 19.5494 35.8142 19.9302 34.6717 20.4932C34.2525 19.657 33.8333 18.9119 33.7593 18.3654C33.6771 17.7279 33.5785 17.3388 33.6771 16.5771C33.7758 15.8154 34.2196 14.7308 34.2114 14.6481C34.2032 14.5653 34.1128 14.1761 33.2086 14.1679C32.3045 14.1596 31.5236 14.3417 31.4332 14.5818C31.3428 14.8219 31.1702 15.3683 31.0551 15.9313C30.899 16.7593 29.2469 19.7149 28.3016 21.2631C27.9975 20.6588 27.7345 20.1289 27.677 19.7067C27.5948 19.0692 27.4961 18.68 27.5948 17.9183C27.6934 17.1567 28.1372 16.0721 28.129 15.9893C28.1208 15.9065 28.0304 15.5174 27.1263 15.5091C26.2221 15.5008 25.4413 15.683 25.3509 15.9231C25.2604 16.1632 25.1618 16.7261 24.9728 17.2726C24.7837 17.819 22.5891 22.7534 22.0138 24.0284C21.7179 24.6825 21.4631 25.2041 21.2822 25.5601C21.2822 25.5601 21.274 25.5849 21.2494 25.6263C21.0932 25.9326 21.0028 26.0982 21.0028 26.0982C21.0028 26.0982 21.0028 26.0982 21.0028 26.1065C20.8795 26.33 20.748 26.537 20.6822 26.537C20.6329 26.537 20.5425 25.9409 20.6987 25.1295C21.0274 23.4157 21.8083 20.7498 21.8001 20.6588C21.8001 20.6091 21.948 20.1455 21.2905 19.9054C20.6493 19.6653 20.4192 20.0627 20.3617 20.0627C20.3041 20.0627 20.263 20.2034 20.263 20.2034C20.263 20.2034 20.9781 17.2063 18.8986 17.2063C17.5999 17.2063 15.8081 18.6386 14.9204 19.9302C14.3615 20.2365 13.1697 20.8906 11.8957 21.5943C11.4107 21.8675 10.9093 22.1407 10.4408 22.3974C10.4079 22.3643 10.3751 22.3229 10.3422 22.2898C7.82705 19.5825 3.17485 17.67 3.37212 14.0354C3.44609 12.7107 3.89816 9.23345 12.3066 5.01105C19.2274 1.57517 24.7344 2.52728 25.6879 4.63848C27.0523 7.65212 22.7371 13.2489 15.5862 14.0602C12.8573 14.3666 11.4272 13.3068 11.0655 12.9094C10.6874 12.4955 10.6299 12.4706 10.4901 12.5534C10.26 12.6776 10.4079 13.0502 10.4901 13.2654C10.7038 13.8284 11.5833 14.8219 13.071 15.3104C14.3861 15.7409 17.5835 15.981 21.4549 14.4742C25.7865 12.7852 29.1729 8.09092 28.1783 4.15829C27.1838 0.167707 20.6083 -1.14869 14.3861 1.07842C10.6874 2.4031 6.67633 4.48946 3.79131 7.20504C0.363809 10.4339 -0.178672 13.2406 0.0432522 14.4162C0.840536 18.589 6.55304 21.3045 8.83804 23.3164C8.72297 23.3826 8.61611 23.4406 8.5257 23.4903C7.3832 24.0615 3.0269 26.3549 1.94194 28.7807C0.709026 31.5294 2.13921 33.4998 3.08444 33.7648C6.01877 34.5844 9.0353 33.1107 10.6545 30.6766C12.2738 28.2425 12.0765 25.0799 11.3285 23.631C11.3203 23.6144 11.3121 23.5979 11.2956 23.5813C11.5915 23.4075 11.8957 23.2253 12.1916 23.0515C12.7751 22.7037 13.3505 22.3808 13.8437 22.1159C13.5642 22.8859 13.3587 23.8049 13.2601 25.1295C13.1368 26.686 13.7697 28.7062 14.5999 29.501C14.9697 29.8487 15.4054 29.857 15.6848 29.857C16.6547 29.857 17.0903 29.0456 17.5753 28.0852C18.1671 26.9096 18.7013 25.5435 18.7013 25.5435C18.7013 25.5435 18.0356 29.236 19.8438 29.236C20.5014 29.236 21.1672 28.375 21.4631 27.9362C21.4631 27.9445 21.4631 27.9445 21.4631 27.9445C21.4631 27.9445 21.4795 27.9196 21.5124 27.8617C21.5781 27.7541 21.6192 27.6878 21.6192 27.6878C21.6192 27.6878 21.6192 27.6795 21.6192 27.6713C21.8823 27.2076 22.4741 26.1562 23.3535 24.4093C24.4878 22.1573 25.581 19.3424 25.581 19.3424C25.581 19.3424 25.6796 20.0295 26.0166 21.1721C26.2139 21.8427 26.6249 22.5795 26.9536 23.2916C26.6906 23.6641 26.5262 23.8711 26.5262 23.8711C26.5262 23.8711 26.5262 23.8711 26.5345 23.8794C26.3208 24.1609 26.0906 24.4672 25.8358 24.7653C24.9399 25.8416 23.8714 27.0752 23.7234 27.4312C23.5508 27.8534 23.5919 28.1597 23.9207 28.4081C24.159 28.5903 24.5865 28.6151 25.0221 28.5903C25.8276 28.5323 26.3947 28.3336 26.6742 28.2094C27.1098 28.0521 27.6194 27.812 28.0961 27.456C28.9756 26.8019 29.5099 25.8664 29.4606 24.6328C29.4359 23.9539 29.214 23.275 28.9427 22.6375C29.0249 22.5216 29.0989 22.4057 29.1811 22.2898C30.5702 20.2448 31.6469 18.0011 31.6469 18.0011C31.6469 18.0011 31.7456 18.6883 32.0826 19.8308C32.247 20.4104 32.584 21.0396 32.8799 21.6523C31.573 22.7203 30.7675 23.9622 30.4798 24.7735C29.962 26.2804 30.3647 26.9592 31.1291 27.1166C31.4743 27.1911 31.9675 27.0255 32.3292 26.8682C32.7894 26.7192 33.3319 26.4625 33.8497 26.0817C34.7292 25.4276 35.5758 24.5169 35.5265 23.2833C35.5019 22.7203 35.3539 22.1656 35.1484 21.6274C36.258 21.1638 37.6882 20.9071 39.5129 21.1224C43.4254 21.586 44.198 24.045 44.0501 25.0799C43.9021 26.1148 43.0802 26.6778 42.8089 26.8516C42.5377 27.0255 42.4473 27.0834 42.4719 27.2076C42.5048 27.3898 42.6363 27.3815 42.8665 27.3484C43.187 27.2904 44.9213 26.5122 44.9953 24.608C45.1186 22.1739 42.8171 19.5162 38.7485 19.5411ZM8.5668 29.7907C7.26813 31.2148 5.45985 31.7529 4.67901 31.2976C3.84063 30.8091 4.1694 28.7062 5.76397 27.1993C6.73386 26.2804 7.98322 25.4276 8.81338 24.906C9.00243 24.7901 9.28189 24.6245 9.61888 24.4175C9.67642 24.3844 9.7093 24.3679 9.7093 24.3679C9.77505 24.3265 9.84081 24.2851 9.90656 24.2437C10.4901 26.3963 9.93122 28.2922 8.5668 29.7907ZM18.0191 23.3164C17.5671 24.4258 16.6218 27.2656 16.0465 27.1083C15.5533 26.9758 15.2492 24.8232 15.9478 22.6955C16.3013 21.6274 17.0492 20.3524 17.4849 19.8557C18.1917 19.0609 18.9726 18.7959 19.1616 19.1188C19.4 19.5411 18.2986 22.6209 18.0191 23.3164ZM25.8194 27.0752C25.6303 27.1745 25.4495 27.2407 25.3673 27.1911C25.3098 27.158 25.4495 27.0255 25.4495 27.0255C25.4495 27.0255 26.4276 25.9657 26.8139 25.4855C27.0358 25.2041 27.2989 24.8729 27.5783 24.5003C27.5783 24.5334 27.5783 24.5748 27.5783 24.608C27.5783 25.8747 26.3619 26.7274 25.8194 27.0752ZM31.836 25.6925C31.6963 25.5932 31.7209 25.262 32.1894 24.2271C32.3703 23.8214 32.7977 23.1425 33.5292 22.4885C33.6114 22.7534 33.6689 23.0101 33.6607 23.2502C33.6525 24.848 32.5182 25.4442 31.836 25.6925Z" fill="#F78181"/>
</svg>
