<svg width="45" height="45" viewBox="0 0 45 45" fill="none" xmlns="http://www.w3.org/2000/svg">
<path d="M45 -0.00012207H0V44.9999H45V-0.00012207Z" fill="#E8E01E"/>
<path d="M30.2285 35.1562C31.1349 36.6362 32.3142 37.7241 34.3999 37.7241C36.1521 37.7241 37.2714 36.8484 37.2714 35.6384C37.2714 34.1884 36.1214 33.6748 34.1928 32.8312L33.1357 32.3777C30.0842 31.0777 28.0571 29.4491 28.0571 26.0062C28.0571 22.8348 30.4735 20.4205 34.2499 20.4205C36.9385 20.4205 38.8714 21.3562 40.2642 23.8062L36.9714 25.9205C36.2464 24.6205 35.4642 24.1084 34.2499 24.1084C33.0114 24.1084 32.2264 24.8941 32.2264 25.9205C32.2264 27.1891 33.0121 27.7027 34.8264 28.4884L35.8835 28.9412C39.4764 30.482 41.5049 32.0527 41.5049 35.5841C41.5049 39.3912 38.5142 41.477 34.4978 41.477C30.5707 41.477 28.0335 39.6055 26.7921 37.1527L30.2285 35.1562ZM15.2907 35.5227C15.9549 36.7012 16.5592 37.6977 18.0121 37.6977C19.4014 37.6977 20.2778 37.1541 20.2778 35.0405V20.662H24.5064V35.0977C24.5064 39.4762 21.9392 41.4691 18.1921 41.4691C14.8064 41.4691 12.8457 39.717 11.8485 37.6066L15.2907 35.5227Z" fill="black"/>
</svg>