<svg width="45" height="45" viewBox="0 0 45 45" fill="none" xmlns="http://www.w3.org/2000/svg">
<path fill-rule="evenodd" clip-rule="evenodd" d="M31.9104 44.5767C32.6191 44.8528 33.4273 44.8351 34.1426 44.4909L43.4074 40.0329C44.3809 39.5644 45 38.5791 45 37.4982V7.26998C45 6.18903 44.3809 5.20375 43.4074 4.7353L34.1426 0.277147C33.2038 -0.174601 32.1051 -0.0639512 31.2811 0.535082C31.1634 0.620658 31.0513 0.716202 30.946 0.821493L13.2098 17.0026L5.48424 11.1383C4.7651 10.5924 3.75913 10.6371 3.0912 11.2447L0.613364 13.4986C-0.203648 14.2419 -0.204585 15.5272 0.611339 16.2716L7.3112 22.384L0.611339 28.4964C-0.204585 29.2408 -0.203648 30.5262 0.613364 31.2693L3.0912 33.5233C3.75913 34.1309 4.7651 34.1756 5.48424 33.6297L13.2098 27.7654L30.946 43.9465C31.2266 44.2272 31.5561 44.4387 31.9104 44.5767ZM33.7568 12.1685L20.2991 22.384L33.7568 32.5995V12.1685Z" fill="#2DB3FE"/>
</svg>
