<svg width="123" height="123" viewBox="0 0 123 123" fill="none" xmlns="http://www.w3.org/2000/svg">
<path d="M56.5 2.88675C59.594 1.10042 63.406 1.10042 66.5 2.88675L109.761 27.8632C112.855 29.6496 114.761 32.9508 114.761 36.5235V86.4765C114.761 90.0492 112.855 93.3504 109.761 95.1368L66.5 120.113C63.406 121.9 59.594 121.9 56.5 120.113L13.2394 95.1368C10.1454 93.3504 8.23944 90.0492 8.23944 86.4765V36.5235C8.23944 32.9508 10.1454 29.6496 13.2394 27.8632L56.5 2.88675Z" fill="#303030"/>
<path fill-rule="evenodd" clip-rule="evenodd" d="M63.4 98.8C43.33 98.8 27 82.47 27 62.4C27 42.33 43.33 26 63.4 26C76.35 26 88.43 32.97 94.92 44.19L79.17 53.31C75.92 47.69 69.88 44.21 63.4 44.21C53.36 44.21 45.2 52.37 45.2 62.41C45.2 72.44 53.36 80.61 63.4 80.61C69.88 80.61 75.92 77.12 79.17 71.51L94.92 80.63C88.43 91.83 76.35 98.8 63.4 98.8Z" fill="#F6F6F6"/>
<line x1="90.5" y1="51" x2="90.5" y2="73" stroke="#F6F6F6" stroke-width="2"/>
<line x1="99.5" y1="51" x2="99.5" y2="73" stroke="#F6F6F6" stroke-width="2"/>
<line x1="106" y1="57.5" x2="84" y2="57.5" stroke="#F6F6F6" stroke-width="2"/>
<line x1="106" y1="66.5" x2="84" y2="66.5" stroke="#F6F6F6" stroke-width="2"/>
</svg>
