<svg width="108" height="108" viewBox="0 0 108 108" fill="none" xmlns="http://www.w3.org/2000/svg">
<path d="M108 102C108 105.315 105.315 108 102 108H6C2.685 108 0 105.315 0 102V6C0 2.685 2.685 0 6 0H102C105.315 0 108 2.685 108 6V102Z" fill="#303030"/>
<path d="M54 75C42.423 75 33 65.58 33 54C33 42.42 42.423 33 54 33C65.577 33 75 42.42 75 54C75 65.58 65.577 75 54 75ZM54 39C45.729 39 39 45.729 39 54C39 62.271 45.729 69 54 69C62.271 69 69 62.271 69 54C69 45.729 62.271 39 54 39Z" fill="#F6F6F6"/>
<path d="M76.5 36C78.9853 36 81 33.9853 81 31.5C81 29.0147 78.9853 27 76.5 27C74.0147 27 72 29.0147 72 31.5C72 33.9853 74.0147 36 76.5 36Z" fill="#F6F6F6"/>
<path d="M72 93H36C24.423 93 15 83.58 15 72V36C15 24.42 24.423 15 36 15H72C83.577 15 93 24.42 93 36V72C93 83.58 83.577 93 72 93ZM36 21C27.729 21 21 27.729 21 36V72C21 80.271 27.729 87 36 87H72C80.271 87 87 80.271 87 72V36C87 27.729 80.271 21 72 21H36Z" fill="#F6F6F6"/>
</svg>
