<svg width="108" height="108" viewBox="0 0 108 108" fill="none" xmlns="http://www.w3.org/2000/svg">
<path d="M108 102C108 105.315 105.315 108 102 108H6C2.685 108 0 105.315 0 102V6C0 2.685 2.685 0 6 0H102C105.315 0 108 2.685 108 6V102Z" fill="#303030"/>
<path d="M90 31.8576C87.3912 33.0296 84.5857 33.8109 81.6254 34.1811C84.6345 32.3694 86.9506 29.4796 88.0371 26.0645C85.2215 27.7379 82.1014 28.9679 78.7828 29.6161C76.132 26.7673 72.3509 25 68.1628 25C60.1178 25 53.5951 31.5557 53.5951 39.6399C53.5951 40.7845 53.728 41.8985 53.9752 42.98C41.8716 42.3642 31.1355 36.5284 23.9534 27.6714C22.692 29.8362 21.9822 32.3694 21.9822 35.0442C21.9822 40.1261 24.5472 44.6006 28.4595 47.2362C26.0711 47.1628 23.8239 46.489 21.856 45.4075C21.856 45.4518 21.856 45.5166 21.856 45.5798C21.856 52.6814 26.8784 58.5956 33.5357 59.9416C32.3196 60.2794 31.0329 60.467 29.7075 60.467C28.7673 60.467 27.8506 60.3595 26.9625 60.1975C28.8161 66.0009 34.1934 70.2434 40.5647 70.3696C35.5793 74.2898 29.3005 76.6371 22.4733 76.6371C21.2942 76.6371 20.1404 76.5688 19 76.4289C25.4538 80.5725 33.1119 83 41.3334 83C68.1224 83 82.7792 60.6888 82.7792 41.3321C82.7792 40.6975 82.7591 40.0664 82.7305 39.442C85.5898 37.3932 88.0539 34.8105 90 31.8576Z" fill="#F6F6F6"/>
</svg>
