<svg width="41" height="45" viewBox="0 0 41 45" fill="none" xmlns="http://www.w3.org/2000/svg">
<path d="M18.1831 0.502242C19.3489 -0.167414 20.7851 -0.167414 21.9508 0.502242L38.2503 9.86537C39.416 10.535 40.1341 11.7726 40.1341 13.1119V31.8382C40.1341 33.1775 39.416 34.4151 38.2503 35.0848L21.9508 44.4478C20.7851 45.1177 19.3489 45.1177 18.1831 44.4478L1.88383 35.0848C0.718109 34.4151 0 33.1775 0 31.8382V13.1119C0 11.7726 0.718109 10.535 1.88383 9.86537L18.1831 0.502242Z" fill="#649AD2"/>
<path fill-rule="evenodd" clip-rule="evenodd" d="M0.426941 33.6906C0.75181 34.2482 1.21988 34.7225 1.79811 35.0564L18.0926 44.4639C19.258 45.137 20.6938 45.137 21.8592 44.4639L38.1538 35.0564C39.3192 34.3835 40.0371 33.1401 40.0371 31.7944V12.9792C40.0371 12.746 40.0156 12.5159 39.9739 12.2913L39.6631 11.8011L0.426941 33.6906Z" fill="#00589C"/>
<path fill-rule="evenodd" clip-rule="evenodd" d="M0.426971 33.7839C0.749964 34.3147 1.20453 34.7663 1.7612 35.0877L18.0557 44.4952C19.2211 45.1683 20.6569 45.1683 21.8223 44.4952L38.1169 35.0877C38.7377 34.7293 39.2315 34.209 39.5574 33.5975L20.6977 22.4751L0.426971 33.7839Z" fill="#004482"/>
<path fill-rule="evenodd" clip-rule="evenodd" d="M20.5597 36.1207C13.2068 36.1207 7.22415 30.179 7.22415 22.8765C7.22415 15.5739 13.2068 9.6322 20.5597 9.6322C25.304 9.6322 29.7296 12.1683 32.1073 16.2507L26.3371 19.569C25.1465 17.5242 22.9337 16.258 20.5597 16.258C16.8814 16.258 13.8919 19.227 13.8919 22.8801C13.8919 26.5296 16.8814 29.5022 20.5597 29.5022C22.9337 29.5022 25.1465 28.2324 26.3371 26.1912L32.1073 29.5095C29.7296 33.5847 25.304 36.1207 20.5597 36.1207Z" fill="white"/>
</svg>
