<svg width="45" height="44" viewBox="0 0 45 44" fill="none" xmlns="http://www.w3.org/2000/svg">
<path d="M23.5184 0H26.5755C26.5755 1.36496 26.5755 2.7248 26.5755 4.08976C32.0455 4.12043 37.5105 4.03352 42.9756 4.12043C44.1412 4.00285 45.056 4.90771 44.9489 6.07329C45.0356 16.1443 44.9284 26.2205 45 36.2915C44.9489 37.3241 45.1022 38.4693 44.5039 39.3844C43.7575 39.916 42.7915 39.8496 41.9225 39.8905C36.805 39.8649 31.6928 39.8751 26.5755 39.8751C26.5755 41.2403 26.5755 42.5997 26.5755 43.9649H23.3804C15.5996 42.5437 7.79839 41.2403 0.00227209 39.8751C-0.00284011 27.9484 0.00227209 16.0216 0.00227209 4.09998C7.83929 2.72991 15.6814 1.39563 23.5184 0Z" fill="#2A5699"/>
<path d="M26.5834 5.72571C32.2068 5.72571 37.8302 5.72571 43.4536 5.72571C43.4536 16.63 43.4536 27.5394 43.4536 38.4438C37.8302 38.4438 32.2068 38.4438 26.5834 38.4438C26.5834 37.0788 26.5834 35.719 26.5834 34.354C31.0157 34.354 35.4428 34.354 39.8751 34.354C39.8751 33.6741 39.8751 32.989 39.8751 32.3091C35.4428 32.3091 31.0157 32.3091 26.5834 32.3091C26.5834 31.4554 26.5834 30.6068 26.5834 29.753C31.0157 29.753 35.4428 29.753 39.8751 29.753C39.8751 29.0731 39.8751 28.3881 39.8751 27.7081C35.4428 27.7081 31.0157 27.7081 26.5834 27.7081C26.5834 26.8544 26.5834 26.0058 26.5834 25.1521C31.0157 25.1521 35.4428 25.1521 39.8751 25.1521C39.8751 24.4721 39.8751 23.7871 39.8751 23.1072C35.4428 23.1072 31.0157 23.1072 26.5834 23.1072C26.5834 22.2534 26.5834 21.4048 26.5834 20.5511C31.0157 20.5511 35.4428 20.5511 39.8751 20.5511C39.8751 19.8712 39.8751 19.1861 39.8751 18.5062C35.4428 18.5062 31.0157 18.5062 26.5834 18.5062C26.5834 17.6525 26.5834 16.8038 26.5834 15.9501C31.0157 15.9501 35.4428 15.9501 39.8751 15.9501C39.8751 15.2702 39.8751 14.5851 39.8751 13.9052C35.4428 13.9052 31.0157 13.9052 26.5834 13.9052C26.5834 13.0515 26.5834 12.2029 26.5834 11.3491C31.0157 11.3491 35.4428 11.3491 39.8751 11.3491C39.8751 10.6692 39.8751 9.98417 39.8751 9.30424C35.4428 9.30424 31.0157 9.30424 26.5834 9.30424C26.5834 8.1131 26.5834 6.91685 26.5834 5.72571Z" fill="#F0F0F0"/>
<path d="M10.8839 15.3213C11.8552 15.265 12.8265 15.2241 13.7978 15.173C14.4777 18.6237 15.173 22.0694 15.9091 25.5048C16.4868 21.9569 17.1258 18.4193 17.7444 14.8765C18.7669 14.8407 19.7893 14.7845 20.8066 14.7231C19.6513 19.6769 18.6391 24.6715 17.3763 29.5945C16.5226 30.0393 15.2446 29.5741 14.2323 29.6456C13.5524 26.2614 12.76 22.8975 12.1517 19.4979C11.5535 22.8004 10.7765 26.0722 10.0915 29.3542C9.10992 29.3031 8.12327 29.2418 7.13661 29.1753C6.28799 24.6766 5.29111 20.2085 4.49872 15.6996C5.3729 15.6587 6.2522 15.6229 7.12639 15.5922C7.65294 18.8487 8.25107 22.0898 8.71117 25.3514C9.43199 22.008 10.1681 18.6646 10.8839 15.3213Z" fill="#F6F6F6"/>
</svg>
