<svg width="45" height="45" viewBox="0 0 45 45" fill="none" xmlns="http://www.w3.org/2000/svg">
<path d="M44.1521 20.4954L24.5045 0.84871C23.3732 -0.283066 21.5382 -0.283066 20.4059 0.84871L16.3264 4.9292L21.5014 10.1042C22.7042 9.69769 24.0833 9.97048 25.0417 10.9294C26.006 11.8942 26.2764 13.285 25.8596 14.4922L30.848 19.4801C32.0552 19.0639 33.447 19.3332 34.4108 20.2985C35.7576 21.6453 35.7576 23.8275 34.4108 25.1753C33.0631 26.5225 30.8808 26.5225 29.5326 25.1753C28.5198 24.1616 28.2691 22.6727 28.7828 21.4249L24.1303 16.7729V29.0148C24.4585 29.1774 24.7685 29.3939 25.0417 29.6671C26.3885 31.0139 26.3885 33.1962 25.0417 34.5444C23.695 35.8907 21.5112 35.8907 20.1654 34.5444C18.8187 33.1957 18.8187 31.0134 20.1654 29.6671C20.4985 29.3346 20.8838 29.0828 21.2952 28.9144V16.5584C20.8838 16.3899 20.4994 16.1407 20.1654 15.8057C19.1453 14.7861 18.9 13.2885 19.423 12.0357L14.3214 6.93319L0.848832 20.4043C-0.282944 21.537 -0.282944 23.3721 0.848832 24.5038L20.4975 44.151C21.6288 45.2828 23.4633 45.2828 24.5961 44.151L44.1521 24.5949C45.2839 23.4631 45.2839 21.6272 44.1521 20.4954Z" fill="#FF6B00"/>
</svg>
