<svg width="45" height="45" viewBox="0 0 45 45" fill="none" xmlns="http://www.w3.org/2000/svg">
<circle cx="22.5" cy="22.5" r="22.5" fill="#004E8C"/>
<path fill-rule="evenodd" clip-rule="evenodd" d="M8.16908 5.1535L39.8465 36.8309C35.7196 41.8207 29.4811 45 22.5 45C10.0736 45 0 34.9264 0 22.5C0 15.519 3.17935 9.28046 8.16908 5.1535Z" fill="#195F97"/>
<path d="M7.58115 13.9091L14.0316 28.9855L20.4566 13.9091H22.3104L14.8442 31.0909H13.2189L5.72729 13.9091H7.58115Z" fill="white"/>
<path d="M38.4545 26.6623C38.4545 27.5174 38.226 28.2837 37.7689 28.9613C37.3118 29.6227 36.6938 30.1471 35.915 30.5343C35.1532 30.9053 34.3151 31.0909 33.4009 31.0909H24.8934V13.9091H33.5786C34.4251 13.9091 35.1532 14.1269 35.7626 14.5625C36.3891 14.9819 36.8631 15.5304 37.1848 16.208C37.5234 16.8695 37.6927 17.5632 37.6927 18.2892C37.6927 19.1443 37.4641 19.9348 37.007 20.6608C36.5499 21.3868 35.915 21.9272 35.1024 22.2822C36.1351 22.5726 36.9478 23.113 37.5403 23.9035C38.1498 24.6941 38.4545 25.6137 38.4545 26.6623ZM36.6769 26.3719C36.6769 25.7911 36.5414 25.2587 36.2705 24.7747C35.9997 24.2746 35.6272 23.8713 35.1532 23.5647C34.696 23.2582 34.1712 23.105 33.5786 23.105H26.6711V29.6147H33.4009C34.0104 29.6147 34.5606 29.4614 35.0516 29.1549C35.5425 28.8484 35.9319 28.4531 36.2198 27.9691C36.5245 27.469 36.6769 26.9366 36.6769 26.3719ZM26.6711 15.3852V21.7256H32.8676C33.4601 21.7256 33.985 21.5804 34.4421 21.29C34.8992 20.9834 35.2632 20.5882 35.5341 20.1042C35.805 19.6202 35.9404 19.1039 35.9404 18.5554C35.9404 17.9746 35.8134 17.4503 35.5595 16.9824C35.3055 16.4984 34.9585 16.1112 34.5183 15.8208C34.0781 15.5304 33.5786 15.3852 33.0199 15.3852H26.6711Z" fill="white"/>
</svg>
