<svg width="45" height="39" viewBox="0 0 45 39" fill="none" xmlns="http://www.w3.org/2000/svg">
<path d="M22.6024 29.9852H9.99829L7.42329 37.9474C7.35553 38.2523 7.08448 38.4556 6.77954 38.4217H0.409815C0.0371186 38.4217 -0.0645254 38.2184 0.0371191 37.8118L10.947 6.40366C11.0486 6.06484 11.1503 5.69215 11.2858 5.28557C11.4213 4.57405 11.4891 3.82866 11.4891 3.08327C11.4552 2.91386 11.5907 2.74445 11.7601 2.71057C11.794 2.71057 11.8279 2.71057 11.8618 2.71057H20.5356C20.8066 2.71057 20.9422 2.81222 20.976 2.98162L33.3428 37.8796C33.4444 38.2523 33.3428 38.4217 33.004 38.4217H25.9227C25.6856 38.4556 25.4484 38.2862 25.3806 38.049L22.6024 29.9852ZM11.9634 23.1073H20.5695C20.3662 22.3957 20.0951 21.5487 19.7902 20.6678C19.4853 19.753 19.1803 18.7704 18.8754 17.754C18.5366 16.7036 18.2316 15.6872 17.8927 14.6369C17.5539 13.5865 17.2489 12.604 16.9779 11.6214C16.7068 10.6727 16.4697 9.79181 16.2325 8.97865H16.1647C15.8598 10.4356 15.4871 11.8925 15.0128 13.3494C14.5045 14.9757 13.9963 16.6698 13.4542 18.3638C12.9799 20.0918 12.4716 21.6842 11.9634 23.1073Z" fill="#FF9A00"/>
<path d="M40.729 8.50426C39.6109 8.53814 38.5267 8.09768 37.7135 7.31841C36.9342 6.47137 36.5276 5.35328 36.5615 4.20131C36.5276 3.04934 36.9681 1.96513 37.7813 1.18585C38.5944 0.406578 39.6786 0 40.7967 0C42.1181 0 43.1345 0.406578 43.8799 1.18585C44.6253 1.99901 45.0319 3.08322 44.998 4.20131C45.0319 5.35328 44.6253 6.47137 43.8122 7.31841C43.0329 8.13157 41.8809 8.57203 40.729 8.50426ZM36.9342 37.9134V11.8247C36.9342 11.4858 37.0697 11.3503 37.3747 11.3503H44.0832C44.3882 11.3503 44.5237 11.5197 44.5237 11.8247V37.9134C44.5237 38.2861 44.3882 38.4555 44.0832 38.4555H37.4424C37.1036 38.4555 36.9342 38.2522 36.9342 37.9134Z" fill="#FF9A00"/>
</svg>
