<svg width="111" height="108" viewBox="0 0 111 108" fill="none" xmlns="http://www.w3.org/2000/svg">
<path d="M57.55 0H64.975C64.975 3.3375 64.975 6.6625 64.975 10C77.4875 10 90 10.025 102.513 9.9625C104.625 10.05 106.95 9.9 108.787 11.1625C110.075 13.0125 109.925 15.3625 110.013 17.4875C109.95 39.1875 109.975 60.875 109.987 82.5625C109.925 86.2 110.325 89.9125 109.562 93.5C109.062 96.1 105.938 96.1625 103.85 96.25C90.9 96.2875 77.9375 96.225 64.975 96.25C64.975 100 64.975 103.75 64.975 107.5H57.2125C38.1625 104.037 19.075 100.838 0 97.5C0 68.3375 0 39.175 0 10.0125C19.1875 6.675 38.375 3.3875 57.55 0Z" fill="#303030"/>
<path d="M35.7375 31.5125C38.5625 31.3125 41.4 31.1375 44.2375 31C40.9 37.8375 37.55 44.675 34.15 51.4875C37.5875 58.4875 41.1 65.4375 44.55 72.4375C41.5375 72.2625 38.5375 72.075 35.525 71.8625C33.4 66.65 30.8125 61.6125 29.2875 56.1625C27.5875 61.2375 25.1625 66.025 23.2125 71C20.475 70.9625 17.7375 70.85 15 70.7375C18.2125 64.45 21.3125 58.1125 24.625 51.8625C21.8125 45.425 18.725 39.1125 15.825 32.7125C18.575 32.55 21.325 32.3875 24.075 32.2375C25.9375 37.125 27.975 41.95 29.5125 46.9625C31.1625 41.65 33.625 36.65 35.7375 31.5125Z" fill="#F6F6F6"/>
<path d="M35.7375 31.5125C38.5625 31.3125 41.4 31.1375 44.2375 31C40.9 37.8375 37.55 44.675 34.15 51.4875C37.5875 58.4875 41.1 65.4375 44.55 72.4375C41.5375 72.2625 38.5375 72.075 35.525 71.8625C33.4 66.65 30.8125 61.6125 29.2875 56.1625C27.5875 61.2375 25.1625 66.025 23.2125 71C20.475 70.9625 17.7375 70.85 15 70.7375C18.2125 64.45 21.3125 58.1125 24.625 51.8625C21.8125 45.425 18.725 39.1125 15.825 32.7125C18.575 32.55 21.325 32.3875 24.075 32.2375C25.9375 37.125 27.975 41.95 29.5125 46.9625C31.1625 41.65 33.625 36.65 35.7375 31.5125Z" fill="#F6F6F6"/>
<rect x="65" y="13" width="41" height="79" fill="#F6F6F6"/>
<path d="M58 21C63.8375 21 69.6625 21 75.5 21C75.5 23.9125 75.5 26.8375 75.5 29.75C69.6625 29.75 63.8375 29.75 58 29.75C58 26.8375 58 23.9125 58 21V21Z" fill="#303030"/>
<path d="M80 21C85.8375 21 91.6625 21 97.5 21C97.5 23.9125 97.5 26.8375 97.5 29.75C91.6625 29.75 85.8375 29.75 80 29.75C80 26.8375 80 23.9125 80 21V21Z" fill="#303030"/>
<path d="M58 33.75C63.8375 33.75 69.6625 33.75 75.5 33.75C75.5 36.6625 75.5 39.5875 75.5 42.5C69.6625 42.5 63.8375 42.5 58 42.5C58 39.5875 58 36.6625 58 33.75V33.75Z" fill="#303030"/>
<path d="M80 33.75C85.8375 33.75 91.6625 33.75 97.5 33.75C97.5 36.6625 97.5 39.5875 97.5 42.5C91.6625 42.5 85.8375 42.5 80 42.5C80 39.5875 80 36.6625 80 33.75V33.75Z" fill="#303030"/>
<path d="M58 47.5C63.8375 47.5 69.6625 47.5 75.5 47.5C75.5 50.4125 75.5 53.3375 75.5 56.25C69.6625 56.25 63.8375 56.25 58 56.25C58 53.3375 58 50.4125 58 47.5V47.5Z" fill="#303030"/>
<path d="M80 47.5C85.8375 47.5 91.6625 47.5 97.5 47.5C97.5 50.4125 97.5 53.3375 97.5 56.25C91.6625 56.25 85.8375 56.25 80 56.25C80 53.3375 80 50.4125 80 47.5V47.5Z" fill="#303030"/>
<path d="M58 61.25C63.8375 61.25 69.6625 61.25 75.5 61.25C75.5 64.1625 75.5 67.0875 75.5 70C69.6625 70 63.8375 70 58 70C58 67.0875 58 64.1625 58 61.25V61.25Z" fill="#303030"/>
<path d="M80 61.25C85.8375 61.25 91.6625 61.25 97.5 61.25C97.5 64.1625 97.5 67.0875 97.5 70C91.6625 70 85.8375 70 80 70C80 67.0875 80 64.1625 80 61.25V61.25Z" fill="#303030"/>
<path d="M58 75C63.8375 75 69.6625 75 75.5 75C75.5 77.9125 75.5 80.8375 75.5 83.75C69.6625 83.75 63.8375 83.75 58 83.75C58 80.8375 58 77.9125 58 75V75Z" fill="#303030"/>
<path d="M80 75C85.8375 75 91.6625 75 97.5 75C97.5 77.9125 97.5 80.8375 97.5 83.75C91.6625 83.75 85.8375 83.75 80 83.75C80 80.8375 80 77.9125 80 75V75Z" fill="#303030"/>
</svg>
