<svg width="90" height="138" viewBox="0 0 90 138" fill="none" xmlns="http://www.w3.org/2000/svg">
<path d="M42 0V42H21C9.435 42 0 32.565 0 21C0 9.435 9.435 0 21 0H42ZM42 48V90H21C9.435 90 0 80.565 0 69C0 57.435 9.435 48 21 48H42ZM42 96V117C42 128.565 32.565 138 21 138C9.435 138 0 128.565 0 117C0 105.435 9.435 96 21 96H42ZM90 21C90 32.565 80.565 42 69 42H48V0H69C80.565 0 90 9.435 90 21ZM69 48C63.4305 48 58.089 50.2125 54.1508 54.1508C50.2125 58.089 48 63.4305 48 69C48 74.5695 50.2125 79.911 54.1508 83.8492C58.089 87.7875 63.4305 90 69 90C74.5695 90 79.911 87.7875 83.8492 83.8492C87.7875 79.911 90 74.5695 90 69C90 63.4305 87.7875 58.089 83.8492 54.1508C79.911 50.2125 74.5695 48 69 48Z" fill="#252A34"/>
</svg>
