<svg width="240" height="240" viewBox="0 0 240 240" fill="none" xmlns="http://www.w3.org/2000/svg">
<rect width="240" height="240" rx="40" fill="#252A34"/>
<path d="M49 164.6V61.7C49 61 49.3 60.6 50 60.6C51.7 60.6 53.3 60.6 55.6 60.5C58 60.4 60.5 60.4 63.2 60.3C65.9 60.2 68.8 60.2 71.9 60.1C75 60 78 60 81 60C89.2 60 96 61 101.6 63.1C106.6 64.8 111.2 67.6 115 71.3C118.2 74.5 120.7 78.4 122.3 82.7C123.8 86.9 124.6 91.2 124.6 95.7C124.6 104.3 122.6 111.4 118.6 117C114.6 122.6 109 126.8 102.5 129.2C95.7 131.7 88.2 132.6 80 132.6C77.6 132.6 76 132.6 75 132.5C74 132.4 72.6 132.4 70.7 132.4V164.5C70.8 165.2 70.3 165.8 69.6 165.9C69.5 165.9 69.4 165.9 69.2 165.9H50.2C49.4 165.9 49 165.5 49 164.6ZM70.8 79.9V113.5C72.2 113.6 73.5 113.7 74.7 113.7H80C83.9 113.7 87.8 113.1 91.5 111.9C94.7 111 97.5 109.1 99.7 106.6C101.8 104.1 102.8 100.7 102.8 96.3C102.9 93.2 102.1 90.1 100.5 87.4C98.8 84.8 96.4 82.8 93.5 81.7C89.8 80.2 85.8 79.6 81.7 79.7C79.1 79.7 76.8 79.7 74.9 79.8C72.9 79.7 71.5 79.8 70.8 79.9Z" fill="#F6F6F6"/>
<path d="M187 107.4C184 105.8 180.8 104.7 177.4 104C173.7 103.2 170 102.7 166.2 102.7C164.2 102.6 162.1 102.9 160.2 103.4C158.9 103.7 157.8 104.4 157.1 105.4C156.6 106.2 156.3 107.2 156.3 108.1C156.3 109 156.7 109.9 157.3 110.7C158.2 111.8 159.4 112.7 160.7 113.4C163 114.6 165.4 115.7 167.8 116.7C173.2 118.5 178.4 121 183.2 124C186.5 126.1 189.2 128.9 191.1 132.3C192.7 135.5 193.5 139 193.4 142.6C193.5 147.3 192.1 152 189.5 155.9C186.7 159.9 182.8 163 178.3 164.8C173.4 166.9 167.4 168 160.2 168C155.6 168 151.1 167.6 146.6 166.7C143.1 166.1 139.6 165 136.4 163.5C135.7 163.1 135.2 162.4 135.3 161.6V144.2C135.3 143.9 135.4 143.5 135.7 143.3C136 143.1 136.3 143.2 136.6 143.4C140.5 145.7 144.6 147.3 149 148.3C152.8 149.3 156.8 149.8 160.8 149.8C164.6 149.8 167.3 149.3 169.1 148.4C170.7 147.7 171.8 146 171.8 144.2C171.8 142.8 171 141.5 169.4 140.2C167.8 138.9 164.5 137.4 159.6 135.5C154.5 133.7 149.8 131.3 145.4 128.3C142.3 126.1 139.7 123.2 137.8 119.8C136.2 116.6 135.4 113.1 135.5 109.6C135.5 105.3 136.7 101.2 138.9 97.5C141.4 93.5 145.1 90.3 149.4 88.3C154.1 85.9 160 84.8 167.1 84.8C171.2 84.8 175.4 85.1 179.5 85.7C182.5 86.1 185.4 86.9 188.1 88C188.5 88.1 188.9 88.5 189.1 88.9C189.2 89.3 189.3 89.7 189.3 90.1V106.4C189.3 106.8 189.1 107.2 188.8 107.4C187.9 107.6 187.4 107.6 187 107.4Z" fill="#F6F6F6"/>
</svg>
