<svg width="100" height="100" viewBox="0 0 100 100" fill="none" xmlns="http://www.w3.org/2000/svg">
<path fill-rule="evenodd" clip-rule="evenodd" d="M70.9119 99.0593C72.4869 99.6728 74.2829 99.6335 75.8725 98.8686L96.4608 88.9619C98.6242 87.9209 100 85.7314 100 83.3293V16.1555C100 13.7534 98.6243 11.5639 96.4609 10.5229L75.8725 0.615882C73.7863 -0.388003 71.3446 -0.142114 69.5135 1.18907C69.252 1.37924 69.0028 1.59156 68.769 1.82554L29.3551 37.7836L12.1872 24.7518C10.5891 23.5386 8.35363 23.6381 6.86933 24.9882L1.36303 29.997C-0.452552 31.6486 -0.454633 34.5049 1.35853 36.1591L16.2471 49.7422L1.35853 63.3254C-0.454633 64.9796 -0.452552 67.8359 1.36303 69.4874L6.86933 74.4962C8.35363 75.8464 10.5891 75.9458 12.1872 74.7327L29.3551 61.7008L68.769 97.6589C69.3925 98.2827 70.1246 98.7526 70.9119 99.0593ZM75.0152 27.0411L45.1091 49.7422L75.0152 72.4434V27.0411Z" fill="#252A34"/>
</svg>
