<svg width="111" height="108" viewBox="0 0 111 108" fill="none" xmlns="http://www.w3.org/2000/svg">
<path d="M57.5056 0H64.9806C64.9806 3.3375 64.9806 6.6625 64.9806 10C78.3556 10.075 91.7181 9.8625 105.081 10.075C107.931 9.7875 110.168 12 109.906 14.85C110.118 39.475 109.856 64.1125 110.031 88.7375C109.906 91.2625 110.281 94.0625 108.818 96.3C106.993 97.6 104.631 97.4375 102.506 97.5375C89.9931 97.475 77.4931 97.5 64.9806 97.5C64.9806 100.838 64.9806 104.162 64.9806 107.5H57.1681C38.1431 104.025 19.0681 100.838 0.00555556 97.5C-0.00694444 68.3375 0.00555556 39.175 0.00555556 10.025C19.1681 6.675 38.3431 3.4125 57.5056 0Z" fill="#303030"/>
<path d="M65 14C78.75 14 92.5 14 106.25 14C106.25 40.6625 106.25 67.3375 106.25 94C92.5 94 78.75 94 65 94C65 90.6625 65 87.3375 65 84C75.8375 84 86.6625 84 97.5 84C97.5 82.3375 97.5 80.6625 97.5 79C86.6625 79 75.8375 79 65 79C65 76.9125 65 74.8375 65 72.75C75.8375 72.75 86.6625 72.75 97.5 72.75C97.5 71.0875 97.5 69.4125 97.5 67.75C86.6625 67.75 75.8375 67.75 65 67.75C65 65.6625 65 63.5875 65 61.5C75.8375 61.5 86.6625 61.5 97.5 61.5C97.5 59.8375 97.5 58.1625 97.5 56.5C86.6625 56.5 75.8375 56.5 65 56.5C65 54.4125 65 52.3375 65 50.25C75.8375 50.25 86.6625 50.25 97.5 50.25C97.5 48.5875 97.5 46.9125 97.5 45.25C86.6625 45.25 75.8375 45.25 65 45.25C65 43.1625 65 41.0875 65 39C75.8375 39 86.6625 39 97.5 39C97.5 37.3375 97.5 35.6625 97.5 34C86.6625 34 75.8375 34 65 34C65 31.9125 65 29.8375 65 27.75C75.8375 27.75 86.6625 27.75 97.5 27.75C97.5 26.0875 97.5 24.4125 97.5 22.75C86.6625 22.75 75.8375 22.75 65 22.75C65 19.8375 65 16.9125 65 14Z" fill="#F6F6F6"/>
<path d="M26.6125 37.4625C28.9875 37.325 31.3625 37.225 33.7375 37.1C35.4 45.5375 37.1 53.9625 38.9 62.3625C40.3125 53.6875 41.875 45.0375 43.3875 36.375C45.8875 36.2875 48.3875 36.15 50.875 36C48.05 48.1125 45.575 60.325 42.4875 72.3625C40.4 73.45 37.275 72.3125 34.8 72.4875C33.1375 64.2125 31.2 55.9875 29.7125 47.675C28.25 55.75 26.35 63.75 24.675 71.775C22.275 71.65 19.8625 71.5 17.45 71.3375C15.375 60.3375 12.9375 49.4125 11 38.3875C13.1375 38.2875 15.2875 38.2 17.425 38.125C18.7125 46.0875 20.175 54.0125 21.3 61.9875C23.0625 53.8125 24.8625 45.6375 26.6125 37.4625V37.4625Z" fill="#F6F6F6"/>
</svg>
