<svg width="96" height="96" viewBox="0 0 96 96" fill="none" xmlns="http://www.w3.org/2000/svg">
<path d="M13.87 75.1468C13.3075 75.6274 12.6228 75.9426 11.8919 76.0574C11.1611 76.1721 10.4127 76.0819 9.73 75.7968L2.46 72.7468C1.73483 72.4443 1.11481 71.9349 0.677322 71.2823C0.239835 70.6296 0.0042608 69.8625 0 69.0768L0 26.4168C0.0042608 25.6311 0.239835 24.864 0.677322 24.2114C1.11481 23.5587 1.73483 23.0493 2.46 22.7468L9.73 19.7468C10.4127 19.4617 11.1611 19.3715 11.8919 19.4863C12.6228 19.601 13.3075 19.9162 13.87 20.3968L15.5 21.7468C15.1694 21.5092 14.7797 21.3675 14.3737 21.3373C13.9677 21.3072 13.5613 21.3897 13.1993 21.5759C12.8372 21.7621 12.5337 22.0447 12.322 22.3925C12.1104 22.7402 11.999 23.1397 12 23.5468V71.9468C11.999 72.3539 12.1104 72.7534 12.322 73.1012C12.5337 73.4489 12.8372 73.7315 13.1993 73.9177C13.5613 74.1039 13.9677 74.1865 14.3737 74.1563C14.7797 74.1262 15.1694 73.9844 15.5 73.7468L13.87 75.1468Z" fill="#303030"/>
<path d="M2.46 72.7468C1.73483 72.4443 1.11481 71.935 0.677322 71.2823C0.239835 70.6296 0.0042608 69.8625 0 69.0768L0 68.7468C0.00492919 69.2085 0.148109 69.6582 0.411064 70.0377C0.674018 70.4172 1.04468 70.7093 1.47522 70.8761C1.90575 71.0429 2.37641 71.0769 2.82645 70.9737C3.27648 70.8704 3.68525 70.6347 4 70.2968L66 1.74682C66.878 0.87316 68.0049 0.292648 69.226 0.084956C70.4471 -0.122736 71.7025 0.0525711 72.82 0.586817L92.6 10.1068C93.6188 10.5967 94.4785 11.3644 95.0801 12.3216C95.6816 13.2787 96.0005 14.3863 96 15.5168V15.7468C95.9994 15.0296 95.7953 14.3274 95.4114 13.7216C95.0276 13.1158 94.4797 12.6313 93.8315 12.3245C93.1833 12.0176 92.4613 11.901 91.7494 11.9882C91.0376 12.0753 90.3651 12.3627 89.81 12.8168L15.5 73.7468L13.87 75.1468C13.3075 75.6274 12.6228 75.9426 11.8919 76.0574C11.1611 76.1721 10.4127 76.0819 9.73 75.7968L2.46 72.7468Z" fill="#303030"/>
<path d="M2.46 22.7468C1.73483 23.0493 1.11481 23.5587 0.677322 24.2114C0.239835 24.864 0.0042608 25.6311 0 26.4168L0 26.7468C0.00492919 26.2851 0.148109 25.8355 0.411064 25.4559C0.674018 25.0764 1.04468 24.7844 1.47522 24.6175C1.90575 24.4507 2.37641 24.4167 2.82645 24.52C3.27648 24.6232 3.68525 24.859 4 25.1968L66 93.7468C66.878 94.6205 68.0049 95.201 69.226 95.4087C70.4471 95.6164 71.7025 95.4411 72.82 94.9068L92.6 85.3868C93.6188 84.8969 94.4785 84.1292 95.0801 83.1721C95.6816 82.2149 96.0005 81.1073 96 79.9768V79.7468C95.9994 80.464 95.7953 81.1663 95.4114 81.7721C95.0276 82.3779 94.4797 82.8623 93.8315 83.1692C93.1833 83.476 92.4613 83.5926 91.7494 83.5055C91.0376 83.4183 90.3651 83.131 89.81 82.6768L15.5 21.7468L13.87 20.3468C13.3025 19.8745 12.6154 19.5684 11.8847 19.4625C11.154 19.3566 10.4082 19.455 9.73 19.7468L2.46 22.7468Z" fill="#303030"/>
<path d="M72.82 94.9068C71.7025 95.4411 70.4471 95.6164 69.226 95.4087C68.0049 95.201 66.878 94.6205 66 93.7468C66.4928 94.2361 67.1193 94.5686 67.8007 94.7027C68.4821 94.8367 69.1879 94.7662 69.8292 94.5C70.4706 94.2338 71.019 93.7839 71.4052 93.2068C71.7915 92.6297 71.9984 91.9512 72 91.2568V4.25682C72.0024 3.56069 71.7983 2.87949 71.4136 2.29934C71.0288 1.71919 70.4807 1.26615 69.8385 0.99749C69.1963 0.728835 68.4888 0.656632 67.8056 0.790009C67.1224 0.923387 66.494 1.25636 66 1.74682C66.878 0.87316 68.0049 0.292648 69.226 0.084956C70.4471 -0.122736 71.7025 0.0525711 72.82 0.586817L92.6 10.0968C93.6188 10.5867 94.4785 11.3544 95.0801 12.3116C95.6816 13.2687 96.0005 14.3763 96 15.5068V79.9868C96.0005 81.1173 95.6816 82.2249 95.0801 83.1821C94.4785 84.1392 93.6188 84.9069 92.6 85.3968L72.82 94.9068Z" fill="#303030"/>
</svg>
