<svg width="30" height="45" viewBox="0 0 30 45" fill="none" xmlns="http://www.w3.org/2000/svg">
<path d="M6.84783 13.6957H13.6957V0H6.84783C3.07663 0 0 3.07665 0 6.84783C0 10.619 3.07663 13.6957 6.84783 13.6957Z" fill="#F24E1E"/>
<path d="M22.5 5.98656e-07L15.6522 0L15.6522 13.6957H22.5C26.2712 13.6957 29.3478 10.619 29.3478 6.84783C29.3478 3.07665 26.2712 9.28344e-07 22.5 5.98656e-07Z" fill="#FF7262"/>
<path d="M6.84783 29.3479H13.6957V15.6522H6.84783C3.07663 15.6522 0 18.7289 0 22.5C0 26.2712 3.07663 29.3479 6.84783 29.3479Z" fill="#A259FF"/>
<path fill-rule="evenodd" clip-rule="evenodd" d="M13.6957 38.1521V31.3043H6.84783C3.07663 31.3043 0 34.381 0 38.1521C0 41.9233 3.07663 45 6.84783 45C10.619 45 13.6957 41.9233 13.6957 38.1521Z" fill="#0ACF83"/>
<circle cx="22.5" cy="22.5" r="6.84783" fill="#1ABCFE"/>
</svg>
