<svg width="45" height="45" viewBox="0 0 45 45" fill="none" xmlns="http://www.w3.org/2000/svg">
<path d="M22.5 44.9997C33.1136 44.9997 33.2457 40.8003 33.2457 40.0296C33.2457 38.7425 33.2457 34.8804 33.2457 34.8804H22.2956V33.3345C22.2956 33.3345 33.7568 33.3345 37.5768 33.3345C40.8513 33.3345 44.9109 31.309 44.9109 22.6019C44.9109 13.0664 40.6023 11.4478 38.5098 11.4478C37.5547 11.4478 34.6894 11.4478 34.6894 11.4478C34.6894 11.4478 34.6894 15.6247 34.6894 16.814C34.6894 19.0591 33.6137 23.2152 28.3905 23.2152C21.8855 23.2152 20.4275 23.2152 17.5426 23.2152C15.9513 23.2152 11.4481 23.9904 11.4481 29.1052C11.4481 35.0235 11.4481 36.573 11.4481 39.0074C11.4481 41.1457 12.7548 44.9997 22.5 44.9997ZM28.5311 41.537C27.4427 41.537 26.5633 40.6576 26.5633 39.5692C26.5633 38.4808 27.4423 37.6013 28.5311 37.6013C29.6191 37.6013 30.499 38.4808 30.499 39.5692C30.499 40.6576 29.6191 41.537 28.5311 41.537Z" fill="#E8DF1E"/>
<path d="M22.4109 0C11.7924 0 11.6783 4.12172 11.6783 4.97011C11.6783 6.2572 11.6783 10.1193 11.6783 10.1193H22.6153V11.6652C22.6153 11.6652 11.2277 11.6652 7.33414 11.6652C4.08411 11.6652 0 13.6412 0 22.3978C0 30.4413 3.18584 33.5519 6.40112 33.5519C7.35581 33.5519 10.2215 33.5519 10.2215 33.5519C10.2215 33.5519 10.2215 29.5594 10.2215 28.1856C10.2215 25.9406 11.334 21.7845 16.5204 21.7845C23.0254 21.7845 24.6858 21.7845 27.3679 21.7845C28.9633 21.7845 33.4624 21.0911 33.4624 15.8944C33.4624 10.3945 33.4624 8.57994 33.4624 5.99226C33.4628 4.70312 33.2424 0 22.4109 0ZM16.3802 3.46264C17.4686 3.46264 18.348 4.34169 18.348 5.43048C18.348 6.51846 17.4686 7.39833 16.3802 7.39833C15.2918 7.39833 14.4123 6.51887 14.4123 5.43048C14.4123 4.34169 15.2918 3.46264 16.3802 3.46264Z" fill="#3C4A94"/>
</svg>
