<svg width="240" height="240" viewBox="0 0 240 240" fill="none" xmlns="http://www.w3.org/2000/svg">
<rect width="240" height="240" rx="40" fill="#252A34"/>
<path d="M113.71 140.5H76.5096L68.9096 164C68.7096 164.9 67.9096 165.5 67.0096 165.4H48.2096C47.1096 165.4 46.8096 164.8 47.1096 163.6L79.3096 70.9C79.6096 69.9 79.9096 68.8 80.3096 67.6C80.7096 65.5 80.9096 63.3 80.9096 61.1C80.8096 60.6 81.2096 60.1 81.7096 60C81.8096 60 81.9096 60 82.0096 60H107.61C108.41 60 108.81 60.3 108.91 60.8L145.41 163.8C145.71 164.9 145.41 165.4 144.41 165.4H123.51C122.81 165.5 122.11 165 121.91 164.3L113.71 140.5ZM82.3096 120.2H107.71C107.11 118.1 106.31 115.6 105.41 113C104.51 110.3 103.61 107.4 102.71 104.4C101.71 101.3 100.81 98.3 99.8096 95.2C98.8096 92.1 97.9096 89.2 97.1096 86.3C96.3096 83.5 95.6096 80.9 94.9096 78.5H94.7096C93.8096 82.8 92.7096 87.1 91.3096 91.4C89.8096 96.2 88.3096 101.2 86.7096 106.2C85.3096 111.3 83.8096 116 82.3096 120.2Z" fill="#F6F6F6"/>
<path d="M167.21 77.1C163.91 77.2 160.71 75.9 158.31 73.6C156.01 71.1 154.81 67.8 154.91 64.4C154.81 61 156.11 57.8 158.51 55.5C160.91 53.2 164.11 52 167.41 52C171.31 52 174.31 53.2 176.51 55.5C178.71 57.9 179.91 61.1 179.81 64.4C179.91 67.8 178.71 71.1 176.31 73.6C174.01 76 170.61 77.3 167.21 77.1ZM156.01 163.9V86.9C156.01 85.9 156.41 85.5 157.31 85.5H177.11C178.01 85.5 178.41 86 178.41 86.9V163.9C178.41 165 178.01 165.5 177.11 165.5H157.51C156.51 165.5 156.01 164.9 156.01 163.9Z" fill="#F6F6F6"/>
</svg>
