<svg width="45" height="44" viewBox="0 0 45 44" fill="none" xmlns="http://www.w3.org/2000/svg">
<path d="M23.5352 0H26.5716C26.5716 1.36488 26.5716 2.72464 26.5716 4.08952C31.6886 4.08952 36.8056 4.09974 41.9229 4.07418C42.7866 4.10996 43.7374 4.04862 44.4886 4.56492C45.0154 5.32148 44.954 6.28252 44.99 7.15154C44.9642 16.0258 44.9745 24.8949 44.9794 33.7641C44.954 35.2516 45.1176 36.7699 44.8056 38.237C44.6011 39.3003 43.3235 39.3258 42.4696 39.3616C37.1737 39.3769 31.8727 39.3514 26.5716 39.3616C26.5716 40.8952 26.5716 42.4287 26.5716 43.9623H23.3971C15.6066 42.5461 7.80075 41.2379 0 39.8728C0 27.9467 0 16.0207 0 4.09463C7.84676 2.72975 15.6935 1.38532 23.5352 0Z" fill="#017340"/>
<path d="M14.6149 12.8871C15.7702 12.8053 16.9306 12.7337 18.091 12.6775C16.7261 15.4737 15.3561 18.2699 13.9657 21.0559C15.3715 23.9185 16.8079 26.7608 18.2188 29.6234C16.9868 29.5519 15.76 29.4752 14.528 29.3883C13.659 27.2566 12.6008 25.1965 11.9772 22.9677C11.282 25.0432 10.2902 27.001 9.49279 29.0356C8.37329 29.0202 7.25378 28.9742 6.13428 28.9282C7.44803 26.3569 8.71578 23.7652 10.0704 21.2092C8.92026 18.5766 7.65762 15.9951 6.47166 13.3778C7.59628 13.3114 8.7209 13.2449 9.84551 13.1836C10.6072 15.1823 11.4404 17.1555 12.0692 19.2054C12.744 17.0328 13.751 14.9881 14.6149 12.8871Z" fill="#F0F0F0"/>
<path d="M14.6149 12.8871C15.7702 12.8053 16.9306 12.7337 18.091 12.6775C16.7261 15.4737 15.3561 18.2699 13.9657 21.0559C15.3715 23.9185 16.8079 26.7608 18.2188 29.6234C16.9868 29.5519 15.76 29.4752 14.528 29.3883C13.659 27.2566 12.6008 25.1965 11.9772 22.9677C11.282 25.0432 10.2902 27.001 9.49279 29.0356C8.37329 29.0202 7.25378 28.9742 6.13428 28.9282C7.44803 26.3569 8.71578 23.7652 10.0704 21.2092C8.92026 18.5766 7.65762 15.9951 6.47166 13.3778C7.59628 13.3114 8.7209 13.2449 9.84551 13.1836C10.6072 15.1823 11.4404 17.1555 12.0692 19.2054C12.744 17.0328 13.751 14.9881 14.6149 12.8871Z" fill="#F0F0F0"/>
<path d="M43.3489 5.31641H26.5818V37.6236H43.3489V5.31641Z" fill="#F0F0F0"/>
<path d="M23.7192 8.58801C26.1065 8.58801 28.4886 8.58801 30.8759 8.58801C30.8759 9.77908 30.8759 10.9753 30.8759 12.1663C28.4886 12.1663 26.1065 12.1663 23.7192 12.1663C23.7192 10.9753 23.7192 9.77908 23.7192 8.58801Z" fill="#017340"/>
<path d="M32.7161 8.58801C35.1034 8.58801 37.4855 8.58801 39.8728 8.58801C39.8728 9.77908 39.8728 10.9753 39.8728 12.1663C37.4855 12.1663 35.1034 12.1663 32.7161 12.1663C32.7161 10.9753 32.7161 9.77908 32.7161 8.58801Z" fill="#017340"/>
<path d="M23.7192 13.8021C26.1065 13.8021 28.4886 13.8021 30.8759 13.8021C30.8759 14.9932 30.8759 16.1894 30.8759 17.3805C28.4886 17.3805 26.1065 17.3805 23.7192 17.3805C23.7192 16.1894 23.7192 14.9932 23.7192 13.8021Z" fill="#017340"/>
<path d="M32.7161 13.8021C35.1034 13.8021 37.4855 13.8021 39.8728 13.8021C39.8728 14.9932 39.8728 16.1894 39.8728 17.3805C37.4855 17.3805 35.1034 17.3805 32.7161 17.3805C32.7161 16.1894 32.7161 14.9932 32.7161 13.8021Z" fill="#017340"/>
<path d="M23.7192 19.4252C26.1065 19.4252 28.4886 19.4252 30.8759 19.4252C30.8759 20.6162 30.8759 21.8124 30.8759 23.0035C28.4886 23.0035 26.1065 23.0035 23.7192 23.0035C23.7192 21.8124 23.7192 20.6162 23.7192 19.4252Z" fill="#017340"/>
<path d="M32.7161 19.4252C35.1034 19.4252 37.4855 19.4252 39.8728 19.4252C39.8728 20.6162 39.8728 21.8124 39.8728 23.0035C37.4855 23.0035 35.1034 23.0035 32.7161 23.0035C32.7161 21.8124 32.7161 20.6162 32.7161 19.4252Z" fill="#017340"/>
<path d="M23.7192 25.0483C26.1065 25.0483 28.4886 25.0483 30.8759 25.0483C30.8759 26.2394 30.8759 27.4356 30.8759 28.6267C28.4886 28.6267 26.1065 28.6267 23.7192 28.6267C23.7192 27.4356 23.7192 26.2394 23.7192 25.0483Z" fill="#017340"/>
<path d="M32.7161 25.0483C35.1034 25.0483 37.4855 25.0483 39.8728 25.0483C39.8728 26.2394 39.8728 27.4356 39.8728 28.6267C37.4855 28.6267 35.1034 28.6267 32.7161 28.6267C32.7161 27.4356 32.7161 26.2394 32.7161 25.0483Z" fill="#017340"/>
<path d="M23.7192 30.6714C26.1065 30.6714 28.4886 30.6714 30.8759 30.6714C30.8759 31.8625 30.8759 33.0586 30.8759 34.2497C28.4886 34.2497 26.1065 34.2497 23.7192 34.2497C23.7192 33.0586 23.7192 31.8625 23.7192 30.6714Z" fill="#017340"/>
<path d="M32.7161 30.6714C35.1034 30.6714 37.4855 30.6714 39.8728 30.6714C39.8728 31.8625 39.8728 33.0586 39.8728 34.2497C37.4855 34.2497 35.1034 34.2497 32.7161 34.2497C32.7161 33.0586 32.7161 31.8625 32.7161 30.6714Z" fill="#017340"/>
</svg>
