<svg width="126" height="126" viewBox="0 0 126 126" fill="none" xmlns="http://www.w3.org/2000/svg">
<path d="M111 0H15C6.72 0 0 6.72 0 15V111C0 119.28 6.72 126 15 126H111C119.28 126 126 119.28 126 111V15C126 6.72 119.28 0 111 0ZM39 48V105H21V48H39ZM21 31.41C21 27.21 24.6 24 30 24C35.4 24 38.79 27.21 39 31.41C39 35.61 35.64 39 30 39C24.6 39 21 35.61 21 31.41ZM105 105H87C87 105 87 77.22 87 75C87 69 84 63 76.5 62.88H76.26C69 62.88 66 69.06 66 75C66 77.73 66 105 66 105H48V48H66V55.68C66 55.68 71.79 48 83.43 48C95.34 48 105 56.19 105 72.78V105Z" fill="white"/>
</svg>
