<svg width="200" height="200" viewBox="0 0 200 200" fill="white" xmlns="http://www.w3.org/2000/svg">
<g clip-path="url(#clip0)">
<path fill-rule="evenodd" clip-rule="evenodd" d="M200.002 145.002L145.002 200.002L127.521 182.521L164.956 145.086L164.916 145.046L164.944 145.018L59.9817 40.0557L77.5187 22.5187L100.001 45.0012L100.013 44.9896L117.565 62.5417L117.553 62.5533L137.46 82.4596L137.471 82.448L155.013 99.9896L155.001 100.001L200.002 145.002ZM140.369 159.684L122.526 177.526L100.001 155.001L99.9895 155.013L82.448 137.471L82.4596 137.46L62.5533 117.553L62.5417 117.565L44.9895 100.013L45.0012 100.001L0 55L55 0L72.5235 17.5235L35.5631 54.484L35.6631 54.584L35.4664 54.7807L140.369 159.684ZM142.448 77.4712L159.971 59.948L160.02 59.9971L164.997 55.0203L127.49 17.5128L145.002 0L200.002 55L159.99 95.0128L142.448 77.4712ZM104.99 40.0128L122.513 22.4896L140.065 40.0418L122.542 57.5649L104.99 40.0128ZM55 200.002L0 145.002L40.0127 104.99L57.5649 122.542L40.0418 140.065L40.0278 140.051L35.051 145.028L72.5128 182.49L55 200.002ZM77.4896 177.513L95.0127 159.99L77.4712 142.448L59.948 159.971L77.4896 177.513ZM122.49 132.513L132.513 122.49L114.971 104.948L104.948 114.971L122.49 132.513ZM77.5127 67.4896L95.0649 85.0418L85.0417 95.065L67.4895 77.5128L77.5127 67.4896Z" fill="#f6f6f6"/>
</g>
<defs>
<clipPath id="clip0">
<rect width="200" height="200" fill="white"/>
</clipPath>
</defs>
</svg>
