<svg width="45" height="45" viewBox="0 0 45 45" fill="none" xmlns="http://www.w3.org/2000/svg">
<path d="M22.2879 26.5854C24.3874 26.5854 26.0893 24.7133 26.0893 22.4038C26.0893 20.0944 24.3874 18.2223 22.2879 18.2223C20.1885 18.2223 18.4865 20.0944 18.4865 22.4038C18.4865 24.7133 20.1885 26.5854 22.2879 26.5854Z" fill="#2DB3FE"/>
<path d="M22.2879 30.3869C34.0449 30.3869 43.5759 26.8128 43.5759 22.4039C43.5759 17.9951 34.0449 14.421 22.2879 14.421C10.5309 14.421 1 17.9951 1 22.4039C1 26.8128 10.5309 30.3869 22.2879 30.3869Z" stroke="#2DB3FE" stroke-width="2"/>
<path d="M15.2488 26.564C21.1273 36.7458 29.0443 43.1803 32.9319 40.9358C36.8196 38.6913 35.2056 28.6177 29.3271 18.4358C23.4486 8.25397 15.5316 1.81948 11.644 4.064C7.75638 6.30852 9.37031 16.3821 15.2488 26.564Z" stroke="#2DB3FE" stroke-width="2"/>
<path d="M15.2488 18.4359C9.37034 28.6178 7.75641 38.6913 11.644 40.9358C15.5317 43.1804 23.4487 36.7459 29.3272 26.564C35.2057 16.3821 36.8196 6.30857 32.932 4.06405C29.0443 1.81953 21.1273 8.25402 15.2488 18.4359Z" stroke="#2DB3FE" stroke-width="2"/>
</svg>
