<svg width="108" height="108" viewBox="0 0 108 108" fill="none" xmlns="http://www.w3.org/2000/svg">
<path d="M108 102C108 105.315 105.315 108 102 108H6C2.685 108 0 105.315 0 102V6C0 2.685 2.685 0 6 0H102C105.315 0 108 2.685 108 6V102Z" fill="none"/>
<path d="M83 44.4375C83 38.2814 81.1528 33.8848 78.0283 30.7865C80.0254 27.2123 77.3823 20 77.3823 20C72.1045 21.0625 68.163 23.1875 65.541 25.049C62.4419 24.4944 59.0831 24.25 55.5554 24.25C51.9454 24.25 48.5064 24.5007 45.3503 25.0851C42.7283 23.2172 38.7741 21.071 33.4604 20C33.4604 20 30.7498 27.4205 32.9221 30.9352C29.8905 34.025 28.1109 38.3834 28.1109 44.4375C28.1109 57.4468 36.2999 62.6657 47.5522 64.1447C45.9836 65.9999 44.9998 68.3735 44.9998 71V71.6481C44.6557 71.7438 44.2989 71.8266 43.9147 71.8776C41.5777 72.1815 39.1204 71.8776 37.9339 71.17C36.7475 70.4624 35.3393 68.8686 34.2838 67.3174C33.3929 66.0084 31.6174 62.9994 27.0722 63.112C26.2784 63.0907 25.9153 63.8409 26.0166 64.3084C26.1074 64.7206 26.4663 65.3709 27.9082 65.9021C29.3543 66.4355 30.1523 67.7169 30.944 69.0004C31.8264 70.4326 31.8243 74.2449 36.3527 76.2594C39.5827 77.698 42.6607 77.5216 45.0019 76.9542L45.004 83.7521C45.004 85.11 43.769 86.1427 42.4897 85.9047C46.5937 87.2945 50.9806 88 55.5554 88C60.1281 88 64.5129 87.2945 68.6233 85.909C67.3439 86.1449 66.111 85.1121 66.111 83.7542V71C66.111 68.3735 65.1273 65.9999 63.5587 64.1447C74.811 62.6657 83 57.4468 83 44.4375Z" fill="#F6F6F6"/>
</svg>
