<svg width="108" height="108" viewBox="0 0 108 108" fill="none" xmlns="http://www.w3.org/2000/svg">
<path d="M108 102C108 105.315 105.315 108 102 108H6C2.685 108 0 105.315 0 102V6C0 2.685 2.685 0 6 0H102C105.315 0 108 2.685 108 6V102Z" fill="#303030"/>
<path fill-rule="evenodd" clip-rule="evenodd" d="M32 91V41H18V91H32Z" fill="#F6F6F6"/>
<path fill-rule="evenodd" clip-rule="evenodd" d="M42.4039 91H58.6849V63.525C58.6849 62.0523 58.9665 60.5818 59.4073 59.5295C60.6075 56.5864 63.7396 53.5409 68.3326 53.5409C74.3497 53.5409 77.1517 58.0591 77.1517 64.6795V91H91V62.7909C91 47.6614 83.8797 41.2045 72.9372 41.2045C63.9681 41.2045 61.1107 45.5455 58.9227 50.0909H58.6849V41H42.4039C42.6232 45.5455 42 91 42 91H42.4039Z" fill="#F6F6F6"/>
<path fill-rule="evenodd" clip-rule="evenodd" d="M25.4437 34C31.3332 34 35 30.5212 35 25.6121C34.8898 20.5945 31.3332 17 25.5563 17C19.777 17 16 20.4812 16 25.4988C16 30.4079 19.6645 34 25.3335 34H25.4437Z" fill="#F6F6F6"/>
</svg>
