<svg width="45" height="28" viewBox="0 0 45 28" fill="none" xmlns="http://www.w3.org/2000/svg">
<path d="M18.454 0H8.80609V9.64787L26.5034 27.3452H36.1513V17.6973L18.454 0Z" fill="#FDD20E"/>
<path d="M45 8.84867L36.1513 0V9.54537L40.2273 13.6214L45 8.84867Z" fill="#4164AF"/>
<path d="M2.36618e-05 18.394L8.84869 27.2427L8.84869 17.6973L4.77271 13.6213L2.36618e-05 18.394Z" fill="#4164AF"/>
<path d="M8.80609 27.3452L8.80609 17.6974L26.5035 0H36.1513V9.64791L18.454 27.3452H8.80609Z" fill="#F2663C"/>
<path d="M44.9574 8.89124L36.1513 17.6973V27.2427L44.9574 18.4366V8.89124Z" fill="#77C473"/>
<path d="M0.0425892 18.3514L8.84869 9.54535L8.8487 2.47955e-05L0.04259 8.80611L0.0425892 18.3514Z" fill="#77C473"/>
</svg>
