<svg width="45" height="45" viewBox="0 0 45 45" fill="none" xmlns="http://www.w3.org/2000/svg">
<path d="M6.50156 35.2251C6.23789 35.4504 5.91694 35.5982 5.57433 35.652C5.23177 35.7057 4.88095 35.6635 4.56094 35.5298L1.15313 34.1001C0.813202 33.9583 0.522567 33.7196 0.317495 33.4137C0.112423 33.1077 0.00199725 32.7481 0 32.3798V12.383C0.00199725 12.0147 0.112423 11.6551 0.317495 11.3492C0.522567 11.0432 0.813202 10.8044 1.15313 10.6626L4.56094 9.25639C4.88095 9.12275 5.23177 9.08047 5.57433 9.13428C5.91694 9.18804 6.23789 9.33579 6.50156 9.56108L7.26562 10.1939C7.11066 10.0825 6.92798 10.0161 6.73767 10.0019C6.54736 9.98783 6.35686 10.0265 6.18717 10.1138C6.01744 10.2011 5.87517 10.3335 5.77594 10.4966C5.67675 10.6595 5.62453 10.8468 5.625 11.0376V33.7251C5.62453 33.916 5.67675 34.1032 5.77594 34.2663C5.87517 34.4292 6.01744 34.5617 6.18717 34.649C6.35686 34.7363 6.54736 34.775 6.73767 34.7608C6.92798 34.7467 7.11066 34.6803 7.26562 34.5689L6.50156 35.2251Z" fill="#8854C0"/>
<path d="M1.15313 34.1001C0.813202 33.9583 0.522567 33.7195 0.317495 33.4136C0.112423 33.1076 0.00199725 32.748 0 32.3797V32.2251C0.00231056 32.4415 0.0694261 32.6523 0.192686 32.8302C0.315946 33.0081 0.489694 33.145 0.691509 33.2232C0.89332 33.3014 1.11394 33.3173 1.3249 33.2689C1.53585 33.2205 1.72746 33.11 1.875 32.9516L30.9375 0.818822C31.3491 0.409294 31.8773 0.137179 32.4497 0.0398231C33.0221 -0.0575325 33.6105 0.0246427 34.1344 0.27507L43.4062 4.73756C43.8838 4.9672 44.2868 5.32706 44.5688 5.77575C44.8507 6.22439 45.0002 6.74358 45 7.2735V7.38131C44.9997 7.04512 44.904 6.71597 44.7241 6.432C44.5442 6.14803 44.2874 5.92092 43.9835 5.77711C43.6797 5.63325 43.3412 5.57859 43.0075 5.61947C42.6739 5.6603 42.3586 5.79502 42.0984 6.00787L7.26562 34.5688L6.50156 35.2251C6.23789 35.4503 5.91694 35.5981 5.57433 35.6519C5.23177 35.7057 4.88095 35.6634 4.56094 35.5297L1.15313 34.1001Z" fill="#8854C0"/>
<path d="M1.15313 10.6625C0.813202 10.8043 0.522567 11.0431 0.317495 11.3491C0.112423 11.655 0.00199725 12.0146 0 12.3829V12.5375C0.00231056 12.3211 0.0694261 12.1104 0.192686 11.9324C0.315946 11.7545 0.489694 11.6177 0.691509 11.5394C0.89332 11.4612 1.11394 11.4453 1.3249 11.4937C1.53585 11.5421 1.72746 11.6526 1.875 11.811L30.9375 43.9438C31.3491 44.3533 31.8773 44.6255 32.4497 44.7228C33.0221 44.8202 33.6105 44.738 34.1344 44.4875L43.4062 40.025C43.8838 39.7954 44.2868 39.4355 44.5688 38.9869C44.8507 38.5382 45.0002 38.019 45 37.4891V37.3813C44.9997 37.7175 44.904 38.0467 44.7241 38.3307C44.5442 38.6146 44.2874 38.8417 43.9835 38.9855C43.6797 39.1294 43.3412 39.184 43.0075 39.1432C42.6739 39.1023 42.3586 38.9676 42.0984 38.7547L7.26562 10.1938L6.50156 9.53754C6.23555 9.31615 5.91347 9.17267 5.57095 9.12303C5.22844 9.07339 4.87884 9.11951 4.56094 9.25629L1.15313 10.6625Z" fill="#8854C0"/>
<path d="M34.1344 44.4876C33.6105 44.738 33.0221 44.8202 32.4497 44.7228C31.8773 44.6255 31.3491 44.3534 30.9375 43.9438C31.1685 44.1732 31.4622 44.329 31.7816 44.3919C32.101 44.4547 32.4318 44.4217 32.7324 44.2969C33.0331 44.1721 33.2902 43.9612 33.4712 43.6907C33.6523 43.4202 33.7492 43.1021 33.75 42.7766V1.99538C33.7511 1.66907 33.6555 1.34976 33.4751 1.07782C33.2947 0.80587 33.0378 0.593508 32.7368 0.467573C32.4358 0.341641 32.1041 0.307796 31.7839 0.370317C31.4636 0.432838 31.1691 0.588919 30.9375 0.818822C31.3491 0.409294 31.8773 0.137179 32.4497 0.0398231C33.0221 -0.0575325 33.6105 0.0246427 34.1344 0.27507L43.4062 4.73287C43.8838 4.96252 44.2868 5.32237 44.5688 5.77106C44.8508 6.2197 45.0002 6.73889 45 7.26881V37.4938C45.0002 38.0237 44.8508 38.5429 44.5688 38.9916C44.2868 39.4403 43.8838 39.8001 43.4062 40.0297L34.1344 44.4876Z" fill="#8854C0"/>
</svg>
